<?xml version="1.0" encoding="utf-8"?>
<!-- Generator: Adobe Illustrator 28.0.0, SVG Export Plug-In . SVG Version: 6.00 Build 0)  -->
<svg version="1.1" id="Layer_1" xmlns="http://www.w3.org/2000/svg" xmlns:xlink="http://www.w3.org/1999/xlink" x="0px" y="0px"
	 viewBox="0 0 24 24" style="enable-background:new 0 0 24 24;" xml:space="preserve">
<style type="text/css">
	.st0{fill:#7C7C7C;}
	.st1{fill:#FFFFFF;}
</style>
<g>
	<path class="st0" d="M24,12c0-2.3-0.1-4.4-0.5-5.6c-0.4-1.4-0.9-2.7-2.1-3.9c-1.5-1.4-2.8-1.8-4.8-2.2C15.2,0.1,13.5,0,12.5,0h-0.9
		c-1.1,0-2.7,0.1-4.2,0.3C5.4,0.7,4,1.2,2.6,2.5C1.3,3.7,0.9,5,0.5,6.4C0.1,7.6,0,9.7,0,12s0.1,4.4,0.5,5.6c0.4,1.4,0.9,2.7,2.1,3.9
		c1.5,1.4,2.8,1.8,4.8,2.2C9,24,11,24,12,24s3,0,4.7-0.3c1.9-0.4,3.3-0.8,4.8-2.2c1.2-1.1,1.7-2.4,2.1-3.9C23.9,16.4,24,14.3,24,12z
		"/>
</g>
<g>
	<g>
		<path class="st1" d="M10.8,12.8c-0.1-0.1-0.2-0.1-0.3-0.1H7.4c-0.5,0-0.8,0.3-0.8,0.8s0.3,0.8,0.8,0.8h1.2l-4,4
			c-0.3,0.3-0.3,0.8,0,1.1c0.3,0.3,0.8,0.3,1.1,0l4-4v1.2c0,0.5,0.3,0.8,0.8,0.8s0.8-0.3,0.8-0.8v-3.1c0-0.1,0-0.2-0.1-0.3
			C11.1,13.1,10.9,12.9,10.8,12.8z M13.2,11.2c0.1,0.1,0.2,0.1,0.3,0.1h3.1c0.5,0,0.8-0.3,0.8-0.8S17,9.7,16.6,9.7h-1.2l4-4
			c0.3-0.3,0.3-0.8,0-1.1c-0.3-0.3-0.8-0.3-1.1,0l-4,4V7.4c0-0.5-0.3-0.8-0.8-0.8S12.8,7,12.8,7.4v3.1c0,0.1,0,0.2,0.1,0.3
			C12.9,10.9,13.1,11.1,13.2,11.2z"/>
	</g>
</g>
</svg>
