<?xml version="1.0" encoding="utf-8"?>
<!-- Generator: Adobe Illustrator 28.0.0, SVG Export Plug-In . SVG Version: 6.00 Build 0)  -->
<svg version="1.1" id="Layer_1" xmlns="http://www.w3.org/2000/svg" xmlns:xlink="http://www.w3.org/1999/xlink" x="0px" y="0px"
	 viewBox="0 0 32 32" style="enable-background:new 0 0 32 32;" xml:space="preserve">
<style type="text/css">
	.st0{fill:#29B348;}
</style>
<path class="st0" d="M16,0C7.2,0,0,7.2,0,16s7.2,16,16,16s16-7.2,16-16S24.8,0,16,0z M14,24.2c-1.7,1.7-4.5,1.7-6.3,0
	C6,22.5,6,19.7,7.8,18l4.2-4.2c1.8-1.8,4.8-1.8,6.5,0.3l-1.3,1.3c-0.2,0.2-0.4,0.2-0.6,0c-0.8-0.8-2.2-0.8-3,0l-4.2,4.2
	c-0.8,0.8-0.8,2.2,0,3c0.8,0.8,2.2,0.8,3,0l2-2c0.8,0.4,1.8,0.6,2.7,0.6C17.1,21.2,14,24.2,14,24.2z M24.2,14L20,18.2
	c-1.8,1.8-4.8,1.8-6.5-0.3l1.3-1.3c0.2-0.2,0.4-0.2,0.6,0c0.8,0.8,2.2,0.8,3,0l4.2-4.2c0.8-0.8,0.8-2.2,0-3c-0.8-0.8-2.2-0.8-3,0
	l-2,2c-0.8-0.4-1.8-0.6-2.7-0.6l3-3c1.7-1.7,4.5-1.7,6.3,0C26,9.5,26,12.3,24.2,14z"/>
</svg>
