<?xml version="1.0" encoding="utf-8"?>
<!-- Generator: Adobe Illustrator 28.0.0, SVG Export Plug-In . SVG Version: 6.00 Build 0)  -->
<svg version="1.1" id="Layer_1" xmlns="http://www.w3.org/2000/svg" xmlns:xlink="http://www.w3.org/1999/xlink" x="0px" y="0px"
	 viewBox="0 0 24 24" style="enable-background:new 0 0 24 24;" xml:space="preserve">
<style type="text/css">
	.st0{fill:#29B348;}
	.st1{fill:#FFFFFF;}
</style>
<g>
	<path class="st0" d="M24,12c0-2.3-0.1-4.4-0.5-5.6c-0.4-1.4-0.9-2.7-2.1-3.9c-1.5-1.4-2.8-1.8-4.8-2.2C15.2,0.1,13.5,0,12.5,0h-0.9
		c-1.1,0-2.7,0.1-4.2,0.3C5.4,0.7,4,1.2,2.6,2.5C1.3,3.7,0.9,5,0.5,6.4C0.1,7.6,0,9.7,0,12s0.1,4.4,0.5,5.6c0.4,1.4,0.9,2.7,2.1,3.9
		c1.5,1.4,2.8,1.8,4.8,2.2C9,24,11,24,12,24s3,0,4.7-0.3c1.9-0.4,3.3-0.8,4.8-2.2c1.2-1.1,1.7-2.4,2.1-3.9C23.9,16.4,24,14.3,24,12z
		"/>
</g>
<g>
	<path class="st1" d="M11.2,17c0.4,0.4,1.1,0.4,1.5,0l4.2-4.2c0.4-0.4,0.4-1.1,0-1.5c-0.4-0.4-1.1-0.4-1.5,0l-2.4,2.4V4.3
		c0-0.6-0.5-1.1-1.1-1.1c-0.6,0-1.1,0.5-1.1,1.1v9.4l-2.4-2.4c-0.4-0.4-1.1-0.4-1.5,0c-0.4,0.4-0.4,1.1,0,1.5L11.2,17z M16.2,18.6
		H7.8c-0.6,0-1.1,0.5-1.1,1.1c0,0.6,0.5,1.1,1.1,1.1h8.3c0.6,0,1.1-0.5,1.1-1.1C17.2,19.1,16.7,18.6,16.2,18.6z"/>
</g>
</svg>
