<?xml version="1.0" encoding="utf-8"?>
<!-- Generator: Adobe Illustrator 28.0.0, SVG Export Plug-In . SVG Version: 6.00 Build 0)  -->
<svg version="1.1" id="Layer_1" xmlns="http://www.w3.org/2000/svg" xmlns:xlink="http://www.w3.org/1999/xlink" x="0px" y="0px"
	 viewBox="0 0 24 24" style="enable-background:new 0 0 24 24;" xml:space="preserve">
<style type="text/css">
	.st0{fill:#ED4A4A;}
	.st1{fill:#FFFFFF;}
</style>
<g>
	<path class="st0" d="M24,12c0-2.3-0.1-4.4-0.5-5.6c-0.4-1.4-0.9-2.7-2.1-3.9c-1.5-1.4-2.8-1.8-4.8-2.2C15.2,0.1,13.5,0,12.5,0h-0.9
		c-1.1,0-2.7,0.1-4.2,0.3C5.4,0.7,4,1.2,2.6,2.5C1.3,3.7,0.9,5,0.5,6.4C0.1,7.6,0,9.7,0,12s0.1,4.4,0.5,5.6c0.4,1.4,0.9,2.7,2.1,3.9
		c1.5,1.4,2.8,1.8,4.8,2.2C9,24,11,24,12,24s3,0,4.7-0.3c1.9-0.4,3.3-0.8,4.8-2.2c1.2-1.1,1.7-2.4,2.1-3.9C23.9,16.4,24,14.3,24,12z
		"/>
</g>
<path class="st1" d="M15,16.4H9c-0.8,0-1.4-0.6-1.4-1.4V9c0-0.8,0.6-1.4,1.4-1.4H15c0.8,0,1.4,0.6,1.4,1.4V15
	C16.4,15.8,15.8,16.4,15,16.4z"/>
</svg>
