<?xml version="1.0" encoding="utf-8"?>
<!-- Generator: Adobe Illustrator 28.0.0, SVG Export Plug-In . SVG Version: 6.00 Build 0)  -->
<svg version="1.1" id="Layer_1" xmlns="http://www.w3.org/2000/svg" xmlns:xlink="http://www.w3.org/1999/xlink" x="0px" y="0px"
	 viewBox="0 0 24 24" style="enable-background:new 0 0 24 24;" xml:space="preserve">
<style type="text/css">
	.st0{fill:#E2B27F;}
</style>
<g>
	<path class="st0" d="M9.6,11.8c1.9,0,3.5-1.6,3.5-3.5s-1.6-3.5-3.5-3.5S6.1,6.4,6.1,8.3C6.1,10.3,7.7,11.8,9.6,11.8L9.6,11.8z
		 M9.6,5.9c1.4,0,2.5,1.1,2.5,2.5s-1.1,2.5-2.5,2.5S7.2,9.7,7.2,8.4C7.2,7,8.3,5.9,9.6,5.9L9.6,5.9z"/>
	<path class="st0" d="M21.4,0H2.6C1.2,0,0,1.2,0,2.6v18.9C0,22.8,1.2,24,2.6,24h18.8c1.4,0,2.6-1.2,2.6-2.6V2.6
		C24,1.2,22.8,0,21.4,0z M2.6,1.1h18.8c0.9,0,1.5,0.7,1.5,1.5v13.1l-3.1-4.4c-0.5-0.7-1.3-1.1-2.1-1.1c-0.8,0-1.6,0.4-2.1,1.1
		l-3.5,4.8c-0.5,0.7-1.4,0.8-2.1,0.4l-2.6-1.8c-0.9-0.6-2-0.6-2.9,0L1,17.1V2.6C1,1.8,1.7,1.1,2.6,1.1L2.6,1.1z M21.4,22.9H2.6
		c-0.9,0-1.5-0.7-1.5-1.5v-3.1l4.2-2.8c0.5-0.3,1.2-0.3,1.7,0l2.6,1.8c1.1,0.8,2.7,0.5,3.5-0.6l3.5-4.8c0.3-0.4,0.8-0.6,1.3-0.6
		s1,0.2,1.2,0.7l3.9,5.5v4C23,22.2,22.3,22.9,21.4,22.9z"/>
</g>
</svg>
