<?xml version="1.0" encoding="utf-8"?>
<!-- Generator: Adobe Illustrator 28.0.0, SVG Export Plug-In . SVG Version: 6.00 Build 0)  -->
<svg version="1.1" id="Layer_1" xmlns="http://www.w3.org/2000/svg" xmlns:xlink="http://www.w3.org/1999/xlink" x="0px" y="0px"
	 viewBox="0 0 24 24" style="enable-background:new 0 0 24 24;" xml:space="preserve">
<style type="text/css">
	.st0{fill:#8F8DE0;}
</style>
<g>
	<path class="st0" d="M16.9,1h4.9C22.5,1,23,1.5,23,2.2v4.9c0,0.3,0.2,0.5,0.5,0.5S24,7.4,24,7.1V2.2C24,1,23,0,21.8,0h-4.9
		c-0.3,0-0.5,0.2-0.5,0.5S16.6,1,16.9,1z"/>
	<path class="st0" d="M12,4.3h7.4h0.3v0.3v2.5c0,0.3,0.2,0.5,0.5,0.5s0.5-0.2,0.5-0.5V3.8c0-0.3-0.2-0.5-0.5-0.5H12
		c-0.3,0-0.5,0.2-0.5,0.5S11.7,4.3,12,4.3z"/>
	<path class="st0" d="M12,6.6c-0.3,0-0.5,0.2-0.5,0.5v1.6c0,0.3,0.2,0.5,0.5,0.5s0.5-0.2,0.5-0.5V7.1C12.5,6.8,12.3,6.6,12,6.6z"/>
	<path class="st0" d="M15.8,12V7.9V7.6h0.3h0.8c0.3,0,0.5-0.2,0.5-0.5s-0.2-0.5-0.5-0.5h-1.6c-0.3,0-0.5,0.2-0.5,0.5V12
		c0,0.3,0.2,0.5,0.5,0.5S15.8,12.3,15.8,12z"/>
	<path class="st0" d="M24,16.9c0-0.3-0.2-0.5-0.5-0.5S23,16.6,23,16.9v4.9c0,0.6-0.5,1.1-1.1,1.1H17c-0.3,0-0.5,0.2-0.5,0.5
		s0.2,0.5,0.5,0.5h4.9c1.2,0,2.2-1,2.2-2.2v-4.8H24z"/>
	<path class="st0" d="M12,14.8c-0.3,0-0.5,0.2-0.5,0.5v4.9c0,0.3,0.2,0.5,0.5,0.5s0.5-0.2,0.5-0.5v-4.9C12.5,15,12.3,14.8,12,14.8z"
		/>
	<path class="st0" d="M11.2,12.5H12c0.3,0,0.5-0.2,0.5-0.5s-0.2-0.5-0.5-0.5h-0.8c-0.3,0-0.5,0.2-0.5,0.5S10.9,12.5,11.2,12.5z"/>
	<path class="st0" d="M18.6,10.9h0.8h0.3v0.3V12c0,0.3,0.2,0.5,0.5,0.5s0.5-0.2,0.5-0.5v-1.6c0-0.3-0.2-0.5-0.5-0.5h-1.6
		c-0.3,0-0.5,0.2-0.5,0.5S18.3,10.9,18.6,10.9z"/>
	<path class="st0" d="M3.8,3.3c-0.3,0-0.5,0.2-0.5,0.5v4.9c0,0.3,0.2,0.5,0.5,0.5h4.9C9,9.2,9.2,9,9.2,8.7V3.8
		c0-0.3-0.2-0.5-0.5-0.5H3.8z M8.2,4.6v3.3v0.3H7.9H4.6H4.3V7.9V4.6V4.3h0.3h3.3h0.3C8.2,4.3,8.2,4.6,8.2,4.6z"/>
	<path class="st0" d="M0,7.1c0,0.3,0.2,0.5,0.5,0.5S1,7.4,1,7.1V2.2C1,1.5,1.5,1,2.2,1h4.9c0.3,0,0.5-0.2,0.5-0.5S7.4,0,7.1,0H2.2
		C1,0,0,1,0,2.2V7.1z"/>
	<path class="st0" d="M7.9,11.5H3.8c-0.3,0-0.5,0.2-0.5,0.5s0.2,0.5,0.5,0.5h4.1c0.3,0,0.5-0.2,0.5-0.5S8.2,11.5,7.9,11.5z"/>
	<path class="st0" d="M7.1,23H2.2C1.5,23,1,22.5,1,21.8v-4.9c0-0.3-0.2-0.5-0.5-0.5S0,16.6,0,16.9v4.9C0,23,1,24,2.2,24h4.9
		c0.3,0,0.5-0.2,0.5-0.5S7.4,23,7.1,23z"/>
	<path class="st0" d="M20.2,20.7c0.3,0,0.5-0.2,0.5-0.5v-4.9c0-0.3-0.2-0.5-0.5-0.5h-4.9c-0.3,0-0.5,0.2-0.5,0.5v4.9
		c0,0.3,0.2,0.5,0.5,0.5H20.2z M15.8,19.4v-3.3v-0.3h0.3h3.3h0.3v0.3v3.3v0.3h-0.3h-3.3h-0.3V19.4z"/>
	<path class="st0" d="M8.7,14.8H3.8c-0.3,0-0.5,0.2-0.5,0.5v4.9c0,0.3,0.2,0.5,0.5,0.5h4.9c0.3,0,0.5-0.2,0.5-0.5v-4.9
		C9.2,15,9,14.8,8.7,14.8z M8.2,16.1v3.3v0.3H7.9H4.6H4.3v-0.3v-3.3v-0.3h0.3h3.3h0.3C8.2,15.8,8.2,16.1,8.2,16.1z"/>
</g>
</svg>
