<?xml version="1.0" encoding="utf-8"?>
<!-- Generator: Adobe Illustrator 28.0.0, SVG Export Plug-In . SVG Version: 6.00 Build 0)  -->
<svg version="1.1" id="Layer_1" xmlns="http://www.w3.org/2000/svg" xmlns:xlink="http://www.w3.org/1999/xlink" x="0px" y="0px"
	 viewBox="0 0 24 24" style="enable-background:new 0 0 24 24;" xml:space="preserve">
<style type="text/css">
	.st0{fill:#DD85D4;}
</style>
<g>
	<path class="st0" d="M23.2,6.5l-6.1-6.3C17,0.1,16.8,0,16.7,0H7.6c-1,0-1.9,0.8-1.9,1.9v6.4H2.1c-0.8,0-1.4,0.6-1.4,1.4v6.9
		c0,0.8,0.6,1.4,1.4,1.4h3.6v4.1c0,1,0.8,1.9,1.9,1.9h13.8c1,0,1.9-0.8,1.9-1.9V6.8C23.3,6.7,23.3,6.6,23.2,6.5z M16.9,6.4v-5l4.8,5
		H16.9z M1.7,9.7c0-0.2,0.2-0.4,0.4-0.4h12.4c0.2,0,0.4,0.2,0.4,0.4v6.9c0,0.2-0.2,0.4-0.4,0.4H2.1c-0.2,0-0.4-0.2-0.4-0.4
		C1.7,16.6,1.7,9.7,1.7,9.7z M6.8,18h7.8c0.8,0,1.4-0.6,1.4-1.4V9.7c0-0.8-0.6-1.4-1.4-1.4H6.8V1.9C6.8,1.4,7.2,1,7.6,1h8.2v5.9
		c0,0.3,0.2,0.5,0.5,0.5h5.9v14.7c0,0.5-0.4,0.9-0.9,0.9H7.6c-0.5,0-0.9-0.4-0.9-0.9V18H6.8z"/>
	<polygon class="st0" points="12,13.6 13.6,13.6 13.6,12.8 12,12.8 12,12 13.9,12 13.9,11.2 11.1,11.2 11.1,15.3 12,15.3 	"/>
	<path class="st0" d="M4.3,13.8h0.5c0.4,0,0.6,0,0.8-0.1c0.1,0,0.3-0.1,0.4-0.2c0.1-0.1,0.3-0.2,0.4-0.4s0.1-0.4,0.1-0.6
		c0-0.3-0.1-0.6-0.2-0.8c-0.2-0.2-0.4-0.3-0.6-0.4c-0.2,0-0.5-0.1-1-0.1H3.4v4h0.9V13.8z M4.3,12h0.3c0.3,0,0.5,0,0.6,0
		s0.2,0.1,0.3,0.2c0.1,0.1,0.1,0.2,0.1,0.3s0,0.2-0.1,0.3l0,0c-0.1,0.1-0.1,0.1-0.2,0.2c-0.1,0-0.3,0-0.6,0H4.3V12z"/>
	<path class="st0" d="M9.3,15.2c0.2-0.1,0.4-0.2,0.6-0.3c0.2-0.2,0.3-0.4,0.4-0.7c0.1-0.2,0.1-0.5,0.1-0.9s0-0.7-0.1-0.9
		c-0.1-0.3-0.2-0.5-0.4-0.7s-0.4-0.3-0.6-0.4c-0.2-0.1-0.4-0.1-0.8-0.1H7.1v4h1.5C8.9,15.3,9.2,15.2,9.3,15.2z M8,14.5V12h0.3
		c0.3,0,0.5,0,0.6,0s0.3,0.1,0.3,0.2c0.1,0.1,0.2,0.2,0.2,0.4c0.1,0.2,0.1,0.4,0.1,0.7s0,0.5-0.1,0.7s-0.1,0.3-0.2,0.4
		c-0.1,0.1-0.2,0.1-0.3,0.2c-0.1,0-0.3,0-0.5,0L8,14.5L8,14.5z"/>
</g>
</svg>
