<?xml version="1.0" encoding="utf-8"?>
<!-- Generator: Adobe Illustrator 28.0.0, SVG Export Plug-In . SVG Version: 6.00 Build 0)  -->
<svg version="1.1" id="Layer_1" xmlns="http://www.w3.org/2000/svg" xmlns:xlink="http://www.w3.org/1999/xlink" x="0px" y="0px"
	 viewBox="0 0 24 24" style="enable-background:new 0 0 24 24;" xml:space="preserve">
<style type="text/css">
	.st0{fill:#8EB2E8;}
</style>
<g>
	<path class="st0" d="M19.5,0h-15C3.1,0,2,1.1,2,2.5v19C2,22.9,3.1,24,4.5,24h15c1.4,0,2.5-1.1,2.5-2.5v-19C22,1.1,20.9,0,19.5,0z
		 M21,21.5c0,0.8-0.7,1.5-1.5,1.5h-15C3.7,23,3,22.3,3,21.5v-19C3,1.7,3.7,1,4.5,1h15C20.3,1,21,1.7,21,2.5V21.5z"/>
	<path class="st0" d="M5.5,10C5.8,10,6,9.8,6,9.5V9h2v5H7.5C7.2,14,7,14.2,7,14.5S7.2,15,7.5,15h2c0.3,0,0.5-0.2,0.5-0.5
		S9.8,14,9.5,14H9V9h2v0.5c0,0.3,0.2,0.5,0.5,0.5S12,9.8,12,9.5v-1C12,8.2,11.8,8,11.5,8h-6C5.2,8,5,8.2,5,8.5v1
		C5,9.8,5.2,10,5.5,10z"/>
	<path class="st0" d="M18.5,20h-13C5.2,20,5,20.2,5,20.5S5.2,21,5.5,21h13c0.3,0,0.5-0.2,0.5-0.5S18.8,20,18.5,20z"/>
	<path class="st0" d="M18.5,17h-13C5.2,17,5,17.2,5,17.5S5.2,18,5.5,18h13c0.3,0,0.5-0.2,0.5-0.5S18.8,17,18.5,17z"/>
	<path class="st0" d="M18.5,14h-4c-0.3,0-0.5,0.2-0.5,0.5s0.2,0.5,0.5,0.5h4c0.3,0,0.5-0.2,0.5-0.5S18.8,14,18.5,14z"/>
	<path class="st0" d="M18.5,8h-4C14.2,8,14,8.2,14,8.5S14.2,9,14.5,9h4C18.8,9,19,8.8,19,8.5S18.8,8,18.5,8z"/>
	<path class="st0" d="M18.5,11h-4c-0.3,0-0.5,0.2-0.5,0.5s0.2,0.5,0.5,0.5h4c0.3,0,0.5-0.2,0.5-0.5S18.8,11,18.5,11z"/>
</g>
</svg>
