<?xml version="1.0" encoding="utf-8"?>
<!-- Generator: Adobe Illustrator 28.0.0, SVG Export Plug-In . SVG Version: 6.00 Build 0)  -->
<svg version="1.1" id="Layer_1" xmlns="http://www.w3.org/2000/svg" xmlns:xlink="http://www.w3.org/1999/xlink" x="0px" y="0px"
	 viewBox="0 0 24 24" style="enable-background:new 0 0 24 24;" xml:space="preserve">
<style type="text/css">
	.st0{fill:#ED9A9A;}
</style>
<g>
	<path class="st0" d="M13.2,3.3c-0.2-0.2-0.5-0.2-0.7,0c-0.1,0.1-0.2,0.2-0.2,0.4c0,0.1,0,0.3,0.1,0.4l2,2c0.1,0.1,0.2,0.2,0.4,0.2
		c0.1,0,0.3-0.1,0.4-0.2L20,1.3c0.2-0.2,0.2-0.5,0-0.7c-0.1-0.1-0.2-0.2-0.4-0.2l0,0c-0.1,0-0.3,0.1-0.4,0.1l-4.4,4.4L13.2,3.3z"/>
	<path class="st0" d="M7.6,10.3H1.3c-0.7,0-1.3,0.6-1.3,1.3v6.3c0,0.7,0.6,1.3,1.3,1.3h6.3c0.7,0,1.3-0.6,1.3-1.3v-6.3
		C8.9,10.9,8.4,10.3,7.6,10.3z M7.9,11.6v6.3c0,0.2-0.1,0.3-0.3,0.3H1.3c-0.2,0-0.3-0.1-0.3-0.3v-6.3c0-0.2,0.1-0.3,0.3-0.3h6.3
		C7.8,11.3,7.9,11.5,7.9,11.6z"/>
	<path class="st0" d="M23.7,14.6c-0.3-0.4-0.6-0.6-1.1-0.7c-0.4-0.1-0.8,0-1.2,0.2c-0.3-0.6-0.9-1-1.6-1c-0.4,0-0.7,0.1-1,0.3
		c-0.5-0.6-1.3-0.9-2.1-0.6V8.9h1.1c0.7,0,1.3-0.6,1.3-1.3v-4c0-0.3-0.2-0.5-0.5-0.5s-0.5,0.2-0.5,0.5v4c0,0.2-0.1,0.3-0.3,0.3h-1.3
		c-0.3-0.5-0.8-0.8-1.4-0.8c-0.9,0-1.7,0.8-1.7,1.7v6.8L13,14.8c-0.3-0.6-0.7-1.1-1.3-1.2c-0.4-0.1-1-0.2-1.8,0.3
		c-0.2,0.1-0.3,0.4-0.2,0.6l1.3,4.9c0.2,0.6,1.5,3.5,2.7,4.1c0.1,0.1,0.2,0.1,0.2,0.2c0.1,0.3,0.4,0.4,0.6,0.3
		c0.3-0.1,0.4-0.4,0.3-0.6c-0.1-0.4-0.5-0.7-0.7-0.7c-0.8-0.4-1.9-2.8-2.3-3.6l-1.1-4.4c0.2-0.1,0.5-0.1,0.7,0
		c0.3,0.1,0.5,0.4,0.7,0.7l1.4,2.9c0.1,0.2,0.3,0.3,0.5,0.3l0,0c0.1,0,0.3-0.1,0.4-0.1c0.1-0.1,0.2-0.2,0.2-0.4V8.8
		c0-0.4,0.3-0.6,0.6-0.6c0.2,0,0.4,0.1,0.5,0.2c0.1,0.1,0.2,0.3,0.2,0.5v5.5c0,0.3,0.2,0.5,0.5,0.5s0.5-0.2,0.5-0.5
		c0-0.4,0.3-0.6,0.6-0.6c0.4,0,0.7,0.3,0.7,0.6v0.4c0,0.3,0.2,0.5,0.5,0.5s0.5-0.2,0.5-0.5c0-0.4,0.3-0.6,0.6-0.6
		c0.2,0,0.4,0.1,0.5,0.2c0.1,0.1,0.2,0.3,0.2,0.5v0.8c0,0.3,0.2,0.5,0.5,0.5s0.5-0.2,0.5-0.5c0-0.4,0.3-0.6,0.6-0.6l0,0
		c0.4,0,0.7,0.3,0.7,0.6V22c0,0.6-0.5,1.1-1.1,1.1h-4c-0.3,0-0.5,0.2-0.5,0.5s0.2,0.5,0.5,0.5h4c1.2,0,2.1-0.9,2.1-2.1v-6.3
		C24,15.2,23.9,14.9,23.7,14.6z"/>
	<path class="st0" d="M7.6,0H1.3C0.6,0,0,0.6,0,1.3v6.3c0,0.7,0.6,1.3,1.3,1.3h6.3c0.7,0,1.3-0.6,1.3-1.3V1.3C8.9,0.6,8.4,0,7.6,0z
		 M7.9,1.3v6.3c0,0.2-0.1,0.3-0.3,0.3H1.3C1.2,7.9,1,7.8,1,7.6V1.3C1,1.2,1.2,1,1.3,1h6.3C7.8,1,7.9,1.2,7.9,1.3z"/>
	<path class="st0" d="M11.6,8.9h0.8c0.3,0,0.5-0.2,0.5-0.5s-0.2-0.5-0.5-0.5h-0.8c-0.2,0-0.3-0.1-0.3-0.3V1.3c0-0.2,0.1-0.3,0.3-0.3
		h6.3c0.3,0,0.5-0.2,0.5-0.5S18.2,0,17.9,0h-6.3c-0.7,0-1.3,0.6-1.3,1.3v6.3C10.3,8.4,10.9,8.9,11.6,8.9z"/>
</g>
</svg>
