<?xml version="1.0" encoding="utf-8"?>
<!-- Generator: Adobe Illustrator 28.0.0, SVG Export Plug-In . SVG Version: 6.00 Build 0)  -->
<svg version="1.1" id="Layer_1" xmlns="http://www.w3.org/2000/svg" xmlns:xlink="http://www.w3.org/1999/xlink" x="0px" y="0px"
	 viewBox="0 0 24 24" style="enable-background:new 0 0 24 24;" xml:space="preserve">
<style type="text/css">
	.st0{fill:#7CCEA5;}
</style>
<g>
	<circle class="st0" cx="14.6" cy="18.3" r="0.5"/>
	<path class="st0" d="M23.3,6.6C23,6.3,22.6,6.1,22.1,6V3.8c0-0.3-0.2-0.5-0.5-0.5c-0.1,0-0.2,0-0.3,0.1l-2.8,2.5h-4.2v-1
		c0-1.3-1-2.3-2.3-2.3H5.5L2.6,0.1C2.4-0.1,2.1,0,2,0.2c-0.1,0-0.1,0.2-0.1,0.3v2.2C0.8,2.9,0,3.8,0,4.9v6.3c0,1.3,1,2.3,2.3,2.3
		h2.1V19c0,1.1,0.8,2.1,1.9,2.3v2.2c0,0.3,0.2,0.5,0.5,0.5c0.1,0,0.2,0,0.3-0.1l2.8-2.5h6.5c1.3,0,2.3-1,2.3-2.3v-2.5h2.9
		c1.3,0,2.3-1,2.3-2.3v-6C24,7.7,23.8,7.1,23.3,6.6z M6.8,20.5c-0.8,0-1.4-0.6-1.4-1.4v-6c0-0.8,0.6-1.4,1.4-1.4h9.7
		c0.8,0,1.4,0.6,1.4,1.4v6c0,0.8-0.6,1.4-1.4,1.4H9.8c-0.1,0-0.2,0-0.3,0.1l-2.2,1.9v-1.6C7.3,20.7,7.1,20.5,6.8,20.5z M13.4,5.9H12
		c-1.3,0-2.3,1-2.3,2.3v2.5H6.8c-1.1,0-2.1,0.8-2.3,1.9H2.3c-0.8,0-1.4-0.6-1.4-1.4V4.9c0-0.8,0.6-1.4,1.4-1.4
		c0.3,0,0.5-0.2,0.5-0.5V1.5L5,3.4c0.1,0.1,0.2,0.1,0.3,0.1H12c0.8,0,1.4,0.6,1.4,1.4V5.9z M23.1,14.2c0,0.8-0.6,1.4-1.4,1.4h-2.9
		v-2.5c0-1.3-1-2.3-2.3-2.3h-5.9V8.3c0-0.8,0.6-1.4,1.4-1.4h6.7c0.1,0,0.2,0,0.3-0.1l2.2-1.9v1.6c0,0.3,0.2,0.5,0.5,0.5l0,0
		c0.8,0,1.4,0.6,1.4,1.4V14.2z M23.2,8.3L23.2,8.3L23.2,8.3L23.2,8.3z"/>
	<path class="st0" d="M8.3,8.9H3.8c-0.3,0-0.5,0.2-0.5,0.5s0.2,0.5,0.5,0.5h4.5c0.3,0,0.5-0.2,0.5-0.5S8.5,8.9,8.3,8.9z"/>
	<path class="st0" d="M9.4,5.2H4.9c-0.3,0-0.5,0.2-0.5,0.5s0.2,0.5,0.5,0.5h4.5c0.3,0,0.5-0.2,0.5-0.5S9.7,5.2,9.4,5.2z"/>
	<path class="st0" d="M8.3,7.1H3.1c-0.3,0-0.5,0.2-0.5,0.5S2.8,8,3.1,8h5.2c0.3,0,0.5-0.2,0.5-0.5S8.5,7.1,8.3,7.1z"/>
	<path class="st0" d="M13.1,17.9H8.7c-0.3,0-0.5,0.2-0.5,0.5s0.2,0.5,0.5,0.5h4.5c0.3,0,0.5-0.2,0.5-0.5S13.4,17.9,13.1,17.9z"/>
	<path class="st0" d="M9.4,14.3h4.5c0.3,0,0.5-0.2,0.5-0.5s-0.2-0.5-0.5-0.5H9.4c-0.3,0-0.5,0.2-0.5,0.5S9.1,14.3,9.4,14.3z"/>
	<path class="st0" d="M19.8,8.6h-6c-0.3,0-0.5,0.2-0.5,0.5s0.2,0.5,0.5,0.5h6c0.3,0,0.5-0.2,0.5-0.5S20.1,8.6,19.8,8.6z"/>
	<path class="st0" d="M16.6,16.1c0-0.3-0.2-0.5-0.5-0.5H7.2c-0.3,0-0.5,0.2-0.5,0.5c0,0.3,0.2,0.5,0.5,0.5h8.9
		C16.4,16.6,16.6,16.3,16.6,16.1z"/>
</g>
</svg>
