<?xml version="1.0" encoding="utf-8"?>
<!-- Generator: Adobe Illustrator 28.0.0, SVG Export Plug-In . SVG Version: 6.00 Build 0)  -->
<svg version="1.1" id="Layer_1" xmlns="http://www.w3.org/2000/svg" xmlns:xlink="http://www.w3.org/1999/xlink" x="0px" y="0px"
	 viewBox="0 0 56 56" style="enable-background:new 0 0 56 56;" xml:space="preserve">
<style type="text/css">
	.st0{fill:#FFE66E;}
	.st1{fill:#F2D041;}
	.st2{fill:#73D282;}
	.st3{fill:#4DC15B;}
	.st4{fill:#F0788C;}
	.st5{fill:#E56581;}
	.st6{fill:#65D2E6;}
</style>
<g>
	<path class="st0" d="M0,20.6l26.2,9.2L35.4,56L9.2,46.8L0,20.6z"/>
	<path class="st1" d="M32.5,47.8l-6.3-18l-18-6.3l6.3,18L32.5,47.8z"/>
	<path class="st2" d="M6.9,13.8L33,23l9.2,26.2l-26.2-9.2L6.9,13.8z"/>
	<path class="st3" d="M39.4,40.9L33,23l-18-6.3l6.3,18L39.4,40.9z"/>
	<path class="st4" d="M13.8,6.9l26.2,9.2l9.2,26.2L23,33L13.8,6.9z"/>
	<path class="st5" d="M46.2,34l-6.3-18L22,9.8l6.3,18L46.2,34z"/>
	<path class="st6" d="M20.6,0l26.2,9.2L56,35.4l-26.2-9.2L20.6,0z"/>
</g>
</svg>
